<?xml version="1.0" encoding="UTF-8" standalone="no"?><!DOCTYPE svg PUBLIC "-//W3C//DTD SVG 1.1//EN" "http://www.w3.org/Graphics/SVG/1.1/DTD/svg11.dtd"><svg width="100%" height="100%" viewBox="0 0 1763 1763" version="1.1" xmlns="http://www.w3.org/2000/svg" xmlns:xlink="http://www.w3.org/1999/xlink" xml:space="preserve" xmlns:serif="http://www.serif.com/" style="fill-rule:evenodd;clip-rule:evenodd;stroke-linecap:round;stroke-linejoin:round;stroke-miterlimit:1.5;"><rect id="Artboard1" x="0" y="0" width="1762.97" height="1762.66" style="fill:none;"/><g id="Artboard11" serif:id="Artboard1"><path d="M1657.69,300.446l-0,1161.82c-0,108.703 -88.253,196.956 -196.956,196.956l-1158.51,0c-108.707,0 -196.959,-88.253 -196.959,-196.956l-0,-1161.82c-0,-108.703 88.252,-196.959 196.959,-196.959l1158.51,-0c108.703,-0 196.956,88.256 196.956,196.959Z" style="fill:#ebebeb;"/><path d="M1657.69,300.446l-0,1161.82c-0,108.703 -88.253,196.956 -196.956,196.956l-1158.51,0c-108.707,0 -196.959,-88.253 -196.959,-196.956l-0,-1161.82c-0,-108.703 88.252,-196.959 196.959,-196.959l1158.51,-0c108.703,-0 196.956,88.256 196.956,196.959Z" style="fill:url(#_Linear1);"/><path d="M317.23,187.716c-0.32,-66.325 34.835,-127.765 92.179,-161.095c57.343,-33.33 128.128,-33.468 185.599,-0.36c243.136,140.058 581.75,335.118 746.985,430.304c61.04,35.162 98.794,100.116 99.136,170.559c0.998,205.62 3.135,645.931 4.606,949.679c0.321,65.662 -34.484,126.489 -91.253,159.486c-56.773,32.998 -126.849,33.132 -183.747,0.358c-225.289,-129.78 -533.946,-307.583 -710.116,-409.066c-85.597,-49.309 -138.538,-140.392 -139.017,-239.173c-1.063,-219.101 -2.998,-618.075 -4.372,-900.692Z" style="stroke:#ebebeb;stroke-width:3.05px;"/><path d="M317.23,187.716c-0.32,-66.325 34.835,-127.765 92.179,-161.095c57.343,-33.33 128.128,-33.468 185.599,-0.36c243.136,140.058 581.75,335.118 746.985,430.304c61.04,35.162 98.794,100.116 99.136,170.559c0.998,205.62 3.135,645.931 4.606,949.679c0.321,65.662 -34.484,126.489 -91.253,159.486c-56.773,32.998 -126.849,33.132 -183.747,0.358c-225.289,-129.78 -533.946,-307.583 -710.116,-409.066c-85.597,-49.309 -138.538,-140.392 -139.017,-239.173c-1.063,-219.101 -2.998,-618.075 -4.372,-900.692Z" style="fill:url(#_Linear2);stroke:#ebebeb;stroke-width:3.05px;"/><path d="M1205.58,656.626l0,449.463c0,178.875 -145.223,324.098 -324.098,324.098c-178.877,0 -324.101,-145.223 -324.101,-324.098l-0,-449.463c-0,-178.878 145.224,-324.101 324.101,-324.101c178.875,-0 324.098,145.223 324.098,324.101Z" style="fill:#d2d2d2;"/><path d="M1205.58,656.626l0,449.463c0,178.875 -145.223,324.098 -324.098,324.098c-178.877,0 -324.101,-145.223 -324.101,-324.098l-0,-449.463c-0,-178.878 145.224,-324.101 324.101,-324.101c178.875,-0 324.098,145.223 324.098,324.101Z" style="fill:#e6e6e6;"/><circle cx="881.051" cy="654.413" r="284.156" style="fill:#646464;stroke:#ebebeb;stroke-width:3.05px;"/></g><defs><linearGradient id="_Linear1" x1="0" y1="0" x2="1" y2="0" gradientUnits="userSpaceOnUse" gradientTransform="matrix(1552.42,0,0,1552.42,105.273,103.487)"><stop offset="0" style="stop-color:#dadada;stop-opacity:1"/><stop offset="1" style="stop-color:#c0c0c0;stop-opacity:1"/></linearGradient><linearGradient id="_Linear2" x1="0" y1="0" x2="1" y2="0" gradientUnits="userSpaceOnUse" gradientTransform="matrix(1128.51,2011.88,-2011.88,1128.51,317.228,-250.748)"><stop offset="0" style="stop-color:#00e281;stop-opacity:1"/><stop offset="0.33" style="stop-color:#00ecc7;stop-opacity:1"/><stop offset="0.5" style="stop-color:#00f1ed;stop-opacity:1"/><stop offset="0.67" style="stop-color:#00d8f5;stop-opacity:1"/><stop offset="1" style="stop-color:#009aff;stop-opacity:1"/></linearGradient></defs></svg>