<?xml version="1.0" encoding="UTF-8" standalone="no"?>
<!DOCTYPE svg PUBLIC "-//W3C//DTD SVG 1.1//EN" "http://www.w3.org/Graphics/SVG/1.1/DTD/svg11.dtd">
<svg width="100%" height="100%" viewBox="0 0 543 86" version="1.1" xmlns="http://www.w3.org/2000/svg" xmlns:xlink="http://www.w3.org/1999/xlink" xml:space="preserve" xmlns:serif="http://www.serif.com/" style="fill-rule:evenodd;clip-rule:evenodd;stroke-linejoin:round;stroke-miterlimit:2;">
    <path d="M146.4,58.07C147.385,58.091 148.189,58.895 148.21,59.88L148.21,64.64C148.189,65.625 147.385,66.429 146.4,66.45L117,66.45C116.009,66.445 115.195,65.631 115.19,64.64L115.19,21.36C115.195,20.369 116.009,19.555 117,19.55L145.88,19.55C146.359,19.547 146.819,19.743 147.15,20.09C147.499,20.419 147.691,20.881 147.68,21.36L147.68,26.12C147.669,27.105 146.865,27.914 145.88,27.93L124.2,27.93L124.2,38.58L144.4,38.58C145.391,38.585 146.205,39.399 146.21,40.39L146.21,45.14C146.21,45.15 146.21,45.16 146.21,45.17C146.21,46.163 145.403,46.984 144.41,47L124.2,47L124.2,58.12L146.4,58.07Z" style="fill-rule:nonzero;"/>
    <path d="M186.91,66.45C186.273,66.495 185.644,66.278 185.17,65.85C184.77,65.44 184.48,65.13 184.3,64.91L165.54,37L165.54,64.6C165.535,65.591 164.721,66.405 163.73,66.41L158.31,66.41C157.319,66.405 156.505,65.591 156.5,64.6L156.5,21.32C156.505,20.329 157.319,19.515 158.31,19.51L163,19.51C163.637,19.465 164.266,19.682 164.74,20.11C165.14,20.51 165.43,20.83 165.61,21.05L184.4,49L184.4,21.4C184.405,20.409 185.219,19.595 186.21,19.59L191.64,19.59C192.625,19.606 193.429,20.415 193.44,21.4L193.44,64.68C193.429,65.665 192.625,66.474 191.64,66.49L186.91,66.45Z" style="fill-rule:nonzero;"/>
    <path d="M202.19,36.9C202.247,34.389 202.744,31.908 203.66,29.57C204.522,27.407 205.85,25.461 207.55,23.87C209.362,22.222 211.497,20.969 213.82,20.19C219.792,18.38 226.179,18.45 232.11,20.39C234.318,21.212 236.353,22.44 238.11,24.01C239.46,25.215 240.532,26.699 241.25,28.36C241.767,29.568 242.104,30.845 242.25,32.15C242.314,32.64 242.126,33.13 241.75,33.45C241.394,33.778 240.924,33.957 240.44,33.95L235,33.95C234.577,33.969 234.16,33.841 233.82,33.59C233.56,33.379 233.346,33.117 233.19,32.82C233.1,32.64 232.86,32.25 232.48,31.64C231.989,30.921 231.38,30.288 230.68,29.77C229.696,29.025 228.608,28.429 227.45,28C225.842,27.449 224.149,27.191 222.45,27.24C219.538,27.102 216.679,28.07 214.45,29.95C212.419,31.823 211.252,34.457 211.23,37.22C211.15,38.92 211.1,40.74 211.1,42.68C211.1,44.62 211.15,46.44 211.23,48.14C211.37,51.847 212.443,54.537 214.45,56.21C216.733,57.971 219.57,58.861 222.45,58.72C223.986,58.739 225.519,58.561 227.01,58.19C228.313,57.87 229.533,57.277 230.59,56.45C231.628,55.601 232.437,54.503 232.94,53.26C233.534,51.714 233.816,50.066 233.77,48.41L233.77,47.87L225.6,47.87C224.615,47.849 223.811,47.045 223.79,46.06L223.79,41.32C223.787,40.841 223.983,40.381 224.33,40.05C224.659,39.701 225.121,39.509 225.6,39.52L241,39.52C241.479,39.509 241.941,39.701 242.27,40.05C242.617,40.381 242.813,40.841 242.81,41.32L242.81,48.69C242.831,51.216 242.401,53.725 241.54,56.1C240.718,58.304 239.412,60.296 237.72,61.93C235.89,63.639 233.719,64.941 231.35,65.75C225.573,67.56 219.377,67.56 213.6,65.75C211.286,64.965 209.17,63.685 207.4,62C205.726,60.369 204.432,58.388 203.61,56.2C202.719,53.832 202.232,51.33 202.17,48.8C202.17,47.95 202.09,47.01 202.07,45.99C202.05,44.97 202.07,43.91 202.07,42.84L202.07,39.69C202.07,38.67 202.15,37.75 202.19,36.9Z" style="fill-rule:nonzero;"/>
    <path d="M253.11,66.45C252.125,66.429 251.321,65.625 251.3,64.64L251.3,21.36C251.321,20.375 252.125,19.571 253.11,19.55L258.54,19.55C259.525,19.571 260.329,20.375 260.35,21.36L260.35,64.64C260.329,65.625 259.525,66.429 258.54,66.45L253.11,66.45Z" style="fill-rule:nonzero;"/>
    <path d="M301.21,66.45C300.573,66.495 299.944,66.278 299.47,65.85C299.07,65.44 298.78,65.13 298.6,64.91L279.84,37L279.84,64.6C279.835,65.595 279.015,66.41 278.02,66.41C278.013,66.41 278.007,66.41 278,66.41L272.58,66.41C271.589,66.405 270.775,65.591 270.77,64.6L270.77,21.32C270.775,20.329 271.589,19.515 272.58,19.51L277.27,19.51C277.907,19.465 278.536,19.682 279.01,20.11C279.41,20.51 279.7,20.83 279.88,21.05L298.64,49.05L298.64,21.4C298.645,20.409 299.459,19.595 300.45,19.59L305.87,19.59C306.861,19.595 307.675,20.409 307.68,21.4L307.68,64.68C307.675,65.671 306.861,66.485 305.87,66.49L301.21,66.45Z" style="fill-rule:nonzero;"/>
    <path d="M349.4,58.07C350.385,58.091 351.189,58.895 351.21,59.88L351.21,64.64C351.189,65.625 350.385,66.429 349.4,66.45L320,66.45C319.015,66.429 318.211,65.625 318.19,64.64L318.19,21.36C318.211,20.375 319.015,19.571 320,19.55L348.88,19.55C349.865,19.571 350.669,20.375 350.69,21.36L350.69,26.12C350.669,27.105 349.865,27.909 348.88,27.93L327.21,27.93L327.21,38.58L347.4,38.58C348.391,38.585 349.205,39.399 349.21,40.39L349.21,45.14C349.218,45.623 349.022,46.088 348.67,46.42C348.336,46.761 347.877,46.952 347.4,46.95L327.21,46.95L327.21,58.07L349.4,58.07Z" style="fill-rule:nonzero;"/>
    <path d="M408.48,19.55C409.465,19.571 410.269,20.375 410.29,21.36C410.292,21.567 410.248,21.772 410.16,21.96L394.28,49.9L394.28,64.64C394.259,65.625 393.455,66.429 392.47,66.45L387.11,66.45C386.121,66.439 385.311,65.629 385.3,64.64L385.3,49.9L369.4,22C369.312,21.812 369.268,21.607 369.27,21.4C369.259,20.921 369.451,20.459 369.8,20.13C370.132,19.778 370.597,19.582 371.08,19.59L376.08,19.59C376.809,19.539 377.529,19.78 378.08,20.26C378.4,20.547 378.671,20.885 378.88,21.26L389.74,40.26L400.59,21.26C400.803,20.884 401.077,20.546 401.4,20.26C401.946,19.772 402.67,19.529 403.4,19.59L408.48,19.55Z" style="fill-rule:nonzero;"/>
    <path d="M434.07,19.55C434.663,19.502 435.249,19.71 435.68,20.12C436.109,20.618 436.43,21.201 436.62,21.83L453,64.17C453.039,64.32 453.059,64.475 453.059,64.63C453.059,65.624 452.244,66.444 451.25,66.45L446.43,66.45C445.752,66.523 445.073,66.317 444.55,65.88C444.231,65.566 443.982,65.188 443.82,64.77L441,57.34L419.8,57.34L416.92,64.77C416.748,65.182 416.501,65.559 416.19,65.88C415.667,66.317 414.988,66.523 414.31,66.45L409.48,66.45C409.001,66.453 408.541,66.257 408.21,65.91C407.861,65.581 407.669,65.119 407.68,64.64C407.68,64.481 407.7,64.323 407.74,64.17L424.16,21.83C424.35,21.201 424.671,20.618 425.1,20.12C425.527,19.71 426.11,19.502 426.7,19.55L434.07,19.55ZM437.76,49L430.4,29.87L423,49L437.76,49Z" style="fill-rule:nonzero;"/>
    <path d="M478.29,19.55C483.877,19.55 488.12,20.847 491.02,23.44C493.92,26.033 495.373,29.627 495.38,34.22C495.471,37.161 494.687,40.064 493.13,42.56C491.544,44.939 489.227,46.74 486.53,47.69L495.78,64.24C495.901,64.469 495.969,64.722 495.98,64.98C495.969,65.782 495.312,66.439 494.51,66.45L488.81,66.45C488.084,66.521 487.36,66.289 486.81,65.81C486.444,65.473 486.137,65.078 485.9,64.64L477.15,49L468.24,49L468.24,64.61C468.235,65.601 467.421,66.415 466.43,66.42L461,66.42C460.009,66.415 459.195,65.601 459.19,64.61L459.19,21.33C459.195,20.339 460.009,19.525 461,19.52L478.29,19.55ZM468.24,40.65L478,40.65C480.116,40.75 482.221,40.287 484.1,39.31C485.61,38.42 486.36,36.72 486.37,34.22C486.38,31.72 485.62,30.05 484.1,29.22C482.202,28.305 480.104,27.885 478,28L468.28,28L468.24,40.65Z" style="fill-rule:nonzero;"/>
    <path d="M522.45,19.55C525.374,19.493 528.286,19.937 531.06,20.86C535.626,22.365 539.26,25.884 540.91,30.4C541.807,32.842 542.336,35.403 542.48,38C542.66,41.304 542.66,44.616 542.48,47.92C542.34,50.531 541.811,53.106 540.91,55.56C540.089,57.741 538.822,59.727 537.19,61.39C535.487,63.053 533.438,64.32 531.19,65.1C528.484,66.023 525.638,66.467 522.78,66.41L505.9,66.41C504.911,66.399 504.101,65.589 504.09,64.6L504.09,21.36C504.095,20.369 504.909,19.555 505.9,19.55L522.45,19.55ZM533.4,38C533.327,36.631 533.044,35.282 532.56,34C532.102,32.792 531.393,31.695 530.48,30.78C529.491,29.818 528.303,29.085 527,28.63C525.391,28.084 523.698,27.826 522,27.87L513,27.87L513,58L522.32,58C523.937,58.041 525.548,57.78 527.07,57.23C528.328,56.78 529.471,56.06 530.42,55.12C531.312,54.208 531.994,53.113 532.42,51.91C532.899,50.626 533.182,49.278 533.26,47.91C533.476,44.611 533.523,41.304 533.4,38Z" style="fill-rule:nonzero;"/>
    <g>
        <clipPath id="_clip1">
            <path d="M24.54,42.57C24.54,32.646 32.706,24.48 42.63,24.48C52.554,24.48 60.72,32.646 60.72,42.57C60.72,52.494 52.554,60.66 42.63,60.66C32.706,60.66 24.54,52.494 24.54,42.57M0.12,42.57C0.12,65.885 19.305,85.07 42.62,85.07C65.935,85.07 85.12,65.885 85.12,42.57C85.12,19.255 65.935,0.07 42.62,0.07C19.318,0.103 0.153,19.268 0.12,42.57"/>
        </clipPath>
        <g clip-path="url(#_clip1)">
            <path d="M-30.02,12.63L72.58,-30.04L115.22,72.55L12.65,115.22L-30.02,12.63Z" style="fill-rule:nonzero;"/>
        </g>
    </g>
    <g>
        <clipPath id="_clip2">
            <path d="M51.32,13.12L42.6,24.49C52.355,24.719 60.255,32.807 60.255,42.565C60.255,52.323 52.355,60.411 42.6,60.64L31.68,73.05L42.6,85.05C42.927,85.058 43.254,85.061 43.581,85.061C66.901,85.061 86.091,65.872 86.091,42.551C86.091,19.555 67.431,0.515 44.44,0.05L42.6,0.05L51.32,13.12Z"/>
        </clipPath>
        <g clip-path="url(#_clip2)">
            <path d="M9.74,78.98L35.49,-13.68L107.02,6.17L81.28,98.86L9.74,78.98Z" style="fill:rgb(64,64,64);fill-rule:nonzero;"/>
        </g>
    </g>
    <g transform="matrix(0.0127406,-0.999919,0.999919,0.0127406,-0.54,84.55)">
        <circle cx="42.55" cy="42.55" r="42.55" style="fill:none;"/>
    </g>
</svg>
