<?xml version="1.0" encoding="UTF-8" standalone="no"?>
<!DOCTYPE svg PUBLIC "-//W3C//DTD SVG 1.1//EN" "http://www.w3.org/Graphics/SVG/1.1/DTD/svg11.dtd">
<svg width="100%" height="100%" viewBox="0 0 900 204" version="1.1" xmlns="http://www.w3.org/2000/svg" xmlns:xlink="http://www.w3.org/1999/xlink" xml:space="preserve" xmlns:serif="http://www.serif.com/" style="fill-rule:evenodd;clip-rule:evenodd;stroke-linejoin:round;stroke-miterlimit:2;">
    <path d="M227.3,57.9C232.9,26 211.6,0 179.8,0L35.8,0L25.6,57.9L169.6,57.9L166.2,77.2L22.2,77.2L0,204L57.6,204L69.7,135L156.1,135C187.9,135 218.3,109 223.9,77.1L227.3,57.9ZM396.6,77.8L243.5,77.8L234.5,126.2L387.5,126.2L396.6,77.8ZM458.2,0L256.6,0L246.4,58L448.1,58L458.2,0ZM220.8,204L422.5,204L432.6,146L231,146L220.8,204ZM535,0C503.6,0 473.3,26.5 467.2,58L465.5,67.7L465.6,67.7C461.7,98.5 482.3,124.7 513.2,124.7L599.6,124.7L595.8,146L451.8,146L441.6,204L585.6,204C617.4,204 647.8,178 653.4,146L657.1,124.7C662.7,92.7 641.4,66.7 609.6,66.7L523.2,66.7L524.7,58L716.8,58L691.2,204L749,204L774.6,58L832.2,58C864,58 894.4,32 900,0L535,0Z" style="fill-rule:nonzero;"/>
</svg>
