<?xml version="1.0" encoding="UTF-8" standalone="no"?>
<!DOCTYPE svg PUBLIC "-//W3C//DTD SVG 1.1//EN" "http://www.w3.org/Graphics/SVG/1.1/DTD/svg11.dtd">
<svg width="100%" height="100%" viewBox="0 0 250 61" version="1.1" xmlns="http://www.w3.org/2000/svg" xmlns:xlink="http://www.w3.org/1999/xlink" xml:space="preserve" xmlns:serif="http://www.serif.com/" style="fill-rule:evenodd;clip-rule:evenodd;stroke-linejoin:round;stroke-miterlimit:2;">
    <path d="M77.35,7.86L77.35,4.63L74.35,4.63L74.35,7.86L72.89,7.86L72.89,0.11L74.4,0.11L74.4,3.36L77.4,3.36L77.4,0.11L78.91,0.11L78.91,7.86L77.35,7.86ZM84.35,7.86L83.15,7.86L83.04,7.48C82.532,7.806 81.944,7.986 81.34,8C80.28,8 79.82,7.3 79.82,6.34C79.82,5.2 80.33,4.77 81.52,4.77L82.92,4.77L82.92,4.15C82.92,3.53 82.74,3.31 81.81,3.31C81.269,3.315 80.73,3.372 80.2,3.48L80,2.42C80.653,2.248 81.325,2.161 82,2.16C83.83,2.16 84.37,2.78 84.37,4.16L84.35,7.86ZM82.92,5.75L81.84,5.75C81.36,5.75 81.23,5.88 81.23,6.3C81.23,6.72 81.36,6.86 81.82,6.86C82.205,6.854 82.582,6.755 82.92,6.57L82.92,5.75ZM87.43,8C86.751,7.989 86.078,7.881 85.43,7.68L85.63,6.61C86.194,6.764 86.775,6.845 87.36,6.85C88.01,6.85 88.1,6.71 88.1,6.29C88.1,5.87 88.03,5.77 87.1,5.56C85.68,5.23 85.51,4.88 85.51,3.8C85.51,2.72 86,2.15 87.67,2.15C88.259,2.152 88.846,2.219 89.42,2.35L89.28,3.46C88.751,3.366 88.217,3.313 87.68,3.3C87.05,3.3 86.94,3.44 86.94,3.78C86.94,4.12 86.94,4.26 87.76,4.46C89.39,4.87 89.54,5.08 89.54,6.23C89.54,7.38 89.19,8 87.43,8ZM94.11,7.89L94.11,4C94.11,3.7 93.98,3.55 93.64,3.55C93.109,3.601 92.593,3.753 92.12,4L92.12,7.86L90.66,7.86L90.66,0L92.12,0.22L92.12,2.69C92.785,2.363 93.51,2.18 94.25,2.15C95.25,2.15 95.57,2.8 95.57,3.8L95.57,7.86L94.11,7.89ZM96.79,1.51L96.79,0.11L98.25,0.11L98.25,1.48L96.79,1.51ZM96.79,7.89L96.79,2.27L98.25,2.27L98.25,7.86L96.79,7.89ZM99.41,2.35C99.41,0.95 100.26,0.13 102.24,0.13C102.967,0.129 103.692,0.213 104.4,0.38L104.23,1.63C103.586,1.511 102.934,1.444 102.28,1.43C101.28,1.43 100.91,1.77 100.91,2.59L100.91,5.5C100.91,6.31 101.24,6.66 102.28,6.66C102.934,6.646 103.586,6.579 104.23,6.46L104.4,7.71C103.692,7.877 102.967,7.961 102.24,7.96C100.24,7.96 99.41,7.15 99.41,5.74L99.41,2.35ZM107.63,8C105.63,8 105.1,6.94 105.1,5.8L105.1,4.36C105.1,3.21 105.64,2.16 107.63,2.16C109.62,2.16 110.16,3.22 110.16,4.36L110.16,5.77C110.17,6.92 109.63,8 107.63,8ZM107.63,3.37C106.85,3.37 106.55,3.7 106.55,4.37L106.55,5.87C106.55,6.5 106.85,6.87 107.63,6.87C108.41,6.87 108.71,6.54 108.71,5.87L108.71,4.31C108.71,3.68 108.41,3.35 107.63,3.35L107.63,3.37ZM114.27,3.46C113.737,3.691 113.222,3.962 112.73,4.27L112.73,7.87L111.27,7.87L111.27,2.27L112.5,2.27L112.6,2.89C113.077,2.582 113.591,2.337 114.13,2.16L114.27,3.46ZM120.1,6C120.116,6.094 120.123,6.188 120.123,6.283C120.123,7.232 119.342,8.013 118.393,8.013C118.322,8.013 118.251,8.009 118.18,8C117.659,7.995 117.141,7.941 116.63,7.84L116.63,10.1L115.17,10.32L115.17,2.32L116.33,2.32L116.47,2.79C117.006,2.405 117.65,2.199 118.31,2.2C119.48,2.2 120.1,2.87 120.1,4.14L120.1,6ZM116.62,6.63C117.044,6.722 117.476,6.772 117.91,6.78C118.44,6.78 118.64,6.54 118.64,6.03L118.64,4.03C118.64,3.57 118.46,3.32 117.92,3.32C117.441,3.338 116.983,3.517 116.62,3.83L116.62,6.63ZM81.78,19.54L72.89,19.54L72.89,14.23L96.7,14.23L96.7,19.54L87.8,19.54L87.8,46.07L81.8,46.07L81.78,19.54Z" style="fill-rule:nonzero;"/>
    <path d="M102.19,41.77C104.605,41.758 107.004,41.387 109.31,40.67L110.22,45.07C107.475,46.059 104.578,46.56 101.66,46.55C94.35,46.55 91.81,43.16 91.81,37.55L91.81,31.4C91.81,26.48 94.01,22.32 101.47,22.32C108.93,22.32 110.6,26.67 110.6,31.69L110.6,36.69L97.6,36.69L97.6,37.89C97.65,40.67 98.65,41.77 102.19,41.77ZM97.65,32L105.06,32L105.06,30.82C105.06,28.62 104.39,27.09 101.52,27.09C98.65,27.09 97.65,28.62 97.65,30.82L97.65,32ZM126.19,27.67C124.042,28.639 121.973,29.772 120,31.06L120,46.06L114.17,46.06L114.17,22.79L119.09,22.79L119.47,25.37C121.367,24.086 123.425,23.057 125.59,22.31L126.19,27.67ZM140.43,27.67C138.289,28.639 136.226,29.773 134.26,31.06L134.26,46.06L128.43,46.06L128.43,22.79L133.35,22.79L133.73,25.37C135.627,24.086 137.685,23.057 139.85,22.31L140.43,27.67ZM159.94,46.07L155.16,46.07L154.73,44.49C152.668,45.832 150.26,46.548 147.8,46.55C143.55,46.55 141.73,43.63 141.73,39.62C141.73,34.89 143.79,33.07 148.52,33.07L154.11,33.07L154.11,30.63C154.11,28.05 153.39,27.14 149.66,27.14C147.491,27.164 145.331,27.406 143.21,27.86L142.49,23.41C145.096,22.689 147.786,22.319 150.49,22.31C157.8,22.31 159.96,24.89 159.96,30.72L159.94,46.07ZM154.11,37.27L149.81,37.27C147.9,37.27 147.37,37.8 147.37,39.56C147.37,41.32 147.9,41.9 149.71,41.9C151.254,41.876 152.768,41.464 154.11,40.7L154.11,37.27ZM177.86,17.48C176.759,17.243 175.636,17.116 174.51,17.1C172.22,17.1 171.88,18.1 171.88,19.87L171.88,22.79L177.81,22.79L177.48,27.43L171.89,27.43L171.89,46.07L166.06,46.07L166.06,27.43L162.33,27.43L162.33,22.79L166.06,22.79L166.06,19.54C166.06,14.71 168.31,12.32 173.47,12.32C175.159,12.314 176.842,12.539 178.47,12.99L177.86,17.48ZM189.24,46.55C181.24,46.55 179.11,42.15 179.11,37.37L179.11,31.49C179.11,26.71 181.26,22.31 189.24,22.31C197.22,22.31 199.37,26.71 199.37,31.49L199.37,37.37C199.38,42.15 197.22,46.55 189.24,46.55ZM189.24,27.28C186.13,27.28 184.94,28.67 184.94,31.28L184.94,37.54C184.94,40.17 186.14,41.54 189.24,41.54C192.34,41.54 193.54,40.15 193.54,37.54L193.54,31.3C193.54,28.67 192.35,27.28 189.24,27.28ZM214.38,27.67C212.239,28.639 210.176,29.773 208.21,31.06L208.21,46.06L202.38,46.06L202.38,22.79L207.3,22.79L207.68,25.37C209.577,24.086 211.634,23.057 213.8,22.31L214.38,27.67ZM230.4,46.07L230.4,29.82C230.4,28.58 229.87,27.96 228.54,27.96C226.403,28.214 224.339,28.894 222.47,29.96L222.47,46.07L216.64,46.07L216.64,22.79L221.09,22.79L221.66,24.79C224.566,23.32 227.748,22.475 231,22.31C232.839,22.137 234.602,23.134 235.4,24.8C238.309,23.309 241.505,22.46 244.77,22.31C248.64,22.31 250.03,25.03 250.03,29.19L250.03,46.07L244.2,46.07L244.2,29.82C244.2,28.58 243.67,27.96 242.34,27.96C240.199,28.196 238.132,28.877 236.27,29.96L236.27,46.07L230.4,46.07Z" style="fill-rule:nonzero;"/>
    <path d="M36.4,20.2L36.4,39.13L52.8,29.67L52.8,10.72L36.4,20.2Z" style="fill-rule:nonzero;"/>
    <path d="M18.2,10.72L34.6,20.2L34.6,39.13L18.2,29.66L18.2,10.72Z" style="fill-rule:nonzero;"/>
    <path d="M0,0.15L0,19.09L16.4,28.56L16.4,9.62L0,0.15ZM18.2,50.68L34.6,60.15L34.6,41.21L18.2,31.74L18.2,50.68Z" style="fill-rule:nonzero;"/>
</svg>
